<?xml version="1.0" encoding="UTF-8"?>
<svg id="Layer_1" data-name="Layer 1" xmlns="http://www.w3.org/2000/svg" viewBox="0 0 1825.97 821.08">
  <defs>
    <style>
      .cls-1 {
        fill: #ffe600;
      }

      .cls-2 {
        fill: none;
        stroke: #8d8d8d;
        stroke-miterlimit: 10;
        stroke-width: 16px;
      }

      .cls-3, .cls-4 {
        fill: #231f20;
      }

      .cls-4 {
        font-family: Roboto-Regular, Roboto;
        font-size: 305.75px;
        letter-spacing: .08em;
      }
    </style>
  </defs>
  <path class="cls-1" d="m162.13,145.66s-97.88,43.48-104.63,100.94c0,0-74.25,145.98-54,204.99,0,0-8.44,249.43,143.45,287,0,0,45.57,130.28,119.82,43.59,0,0,158.63-33.97,185.64-231.2,0,0,35.44-287.3-74.25-363.39,0,0-27-63.67-216.01-41.93Z"/>
  <circle class="cls-2" cx="368.04" cy="283.11" r="100.04"/>
  <path class="cls-3" d="m431.38,328.18l-103.59-150.84c-1.46-2.34-4.15-3.66-6.94-3.41l-211.8,19.01c-3.91.35-7.39-2.35-7.95-6.15l-15.45-105.94c-.94-6.42-9.36-8.45-13.27-3.19l-25.89,34.74c-2.74,3.68-8.21,4.02-11.37.71l-19.93-20.88c-2.41-2.53-2.65-6.38-.57-9.2l36.05-48.8c1.18-1.59,2.95-2.65,4.93-2.94L269.62.08c2.94-.43,5.84.89,7.37,3.38,14.41,23.45,119.98,182.22,167.71,318.5,2.87,8.19-8.71,13.6-13.31,6.22Z"/>
  <text class="cls-4" transform="translate(521.45 354.25) scale(1.1 1)"><tspan x="0" y="0">Lemon</tspan><tspan x="0" y="383.97">Studios</tspan></text>
</svg>