<?xml version="1.0" encoding="UTF-8"?>
<svg id="Layer_1" data-name="Layer 1" xmlns="http://www.w3.org/2000/svg" viewBox="0 0 273.48 460.51">
  <defs>
    <style>
      .cls-1 {
        fill: #fee600;
      }

      .cls-2 {
        fill: none;
        stroke: #8e8d8d;
        stroke-miterlimit: 10;
        stroke-width: 16px;
      }

      .cls-3 {
        fill: #373737;
      }
    </style>
  </defs>
  <path class="cls-1" d="m91.96,82.62s-55.51,24.66-59.34,57.25c0,0-42.11,82.79-30.63,116.26,0,0-4.79,141.47,81.36,162.78,0,0,25.84,73.89,67.96,24.72,0,0,89.97-19.27,105.29-131.13,0,0,20.1-162.95-42.11-206.11,0,0-15.31-36.11-122.52-23.78Z"/>
  <circle class="cls-2" cx="208.74" cy="160.57" r="56.74"/>
  <path class="cls-3" d="m244.67,186.13l-58.76-85.55c-.83-1.33-2.35-2.08-3.94-1.93l-120.13,10.78c-2.22.2-4.19-1.33-4.51-3.49l-8.76-60.09c-.53-3.64-5.31-4.79-7.53-1.81l-14.69,19.7c-1.56,2.09-4.66,2.28-6.45.41l-11.3-11.84c-1.37-1.43-1.5-3.62-.32-5.22l20.45-27.68c.67-.9,1.68-1.5,2.8-1.67L152.92.05c1.67-.24,3.31.5,4.18,1.92,8.17,13.3,68.05,103.35,95.12,180.64,1.63,4.65-4.94,7.72-7.55,3.53Z"/>
</svg>